<svg width="229" height="55" viewBox="0 0 229 55" fill="none" xmlns="http://www.w3.org/2000/svg">
<g clip-path="url(#clip0_1976_240)">
<path fill-rule="evenodd" clip-rule="evenodd" d="M165.564 37.4353C167.929 24.5167 182.573 17.9658 193.378 18.5897V18.591C197.553 18.836 201.153 20.152 203.243 22.5894L203.258 22.5743C203.263 22.5793 203.268 22.5844 203.271 22.5894C204.13 21.6448 204.989 20.7014 205.856 19.7643C206.362 19.2174 207.808 19.3942 209.091 19.6354C210.544 19.9095 212.097 20.5334 213.09 20.5346C214.103 20.5346 216.496 19.7718 218.772 19.4169C221.047 19.0633 223.205 19.1176 222.834 20.0724L220.798 25.3136H220.836L214.18 42.4163C212.854 45.8225 218.045 44.9195 225.255 36.9971C226.49 37.8382 227.052 37.9961 228.286 41.1787C222.126 46.6775 216.247 50.628 208.097 53.5441C200.769 56.1685 195.371 52.3696 193.672 46.0385C183.261 56.1672 168.755 56.0586 164.591 44.6328C157.822 48.1084 149.731 51.8012 146.375 52.8078C143.744 53.5971 141.349 54.1516 139.102 54.1667C135.497 54.192 131.566 50.7063 132.806 45.5775C126.836 48.3231 122.095 50.114 115.254 52.5603C107.926 55.1847 103.711 52.3708 102.011 46.0385C91.5977 56.1685 77.0854 56.0586 72.926 44.6227C68.8372 46.6674 63.1787 49.6719 57.9712 51.7911C49.5953 55.7012 39.7799 54.9194 32.4471 46.944L34.8448 43.0238C38.2965 46.8379 42.507 46.6232 45.8068 43.5265C49.3205 40.2289 51.5504 33.87 49.9516 28.6604C49.2488 26.3707 46.7636 24.6127 42.1021 24.9335L43.5453 20.9413C48.3114 20.7658 52.0392 20.1052 54.0964 16.9934C56.9852 12.6223 57.035 5.88707 50.8367 6.06893C49.7412 6.10051 48.4524 6.34299 46.9521 6.84438C45.8785 10.1444 43.9867 14.0393 42.4644 18.1313C38.9908 27.4682 35.1001 37.8319 30.5808 44.5116C25.1959 52.4693 19.4377 54.043 14.798 53.7197C9.9444 53.3787 6.13882 51.8518 0.81953 46.8695C0.793997 44.7553 0.997042 43.8359 1.38368 41.2115C3.24513 43.9344 9.65989 46.8328 11.739 43.6654C16.3908 36.574 21.5095 22.8963 25.3284 14.0671C21.8766 15.2568 18.6729 17.4392 14.1476 20.6988C14.201 20.1583 12.6375 18.9737 12.6995 17.3836C19.9483 8.69964 32.7876 3.39024 41.4334 1.49204C54.6471 -1.40893 68.8262 2.81055 70.954 11.4857C72.3728 17.2712 65.8037 22.6943 59.6309 23.4773C63.1835 25.6496 66.9538 29.422 67.8986 34.0367C68.3752 36.3656 68.2439 38.8662 67.5338 41.2595C69.6105 40.258 72.1199 38.9433 73.7735 38.2449C76.379 19.6847 103.992 13.7148 111.612 22.5894L114.223 19.7643C114.729 19.2174 116.175 19.3942 117.457 19.6354C118.91 19.9095 120.464 20.5334 121.457 20.5346C122.47 20.5346 124.863 19.7718 127.138 19.4169C129.414 19.0633 131.571 19.1176 131.2 20.0724L122.52 42.4176C120.558 47.4618 134.968 38.5227 135.818 38.039L142.009 24.3702L135.633 24.4624L136.778 18.8448L143.823 18.8486C144.981 17.251 145.324 15.3326 146.862 14.1303C148.949 12.4986 153.708 13.375 155.895 11.8924C157.785 10.6092 159.238 8.6769 160.986 5.70142C162.494 3.13007 167.984 3.78806 166.935 6.2369L162.023 18.9976L168.23 18.937C171.179 19.0974 168.647 24.1871 165.293 24.2262L160.165 24.3235L154.21 40.3401C152.255 45.5876 159.862 40.921 165.564 37.4353ZM108.543 26.4768C107.862 24.0456 105.827 23.3927 104.066 23.5872C99.897 24.0494 95.8689 28.8562 93.802 32.2004C90.49 37.5603 91.2755 45.4562 96.54 43.9887C102.11 42.4328 109.531 30.008 108.543 26.4768ZM200.204 26.4768C199.522 24.0456 197.487 23.3927 195.726 23.5872C191.557 24.0494 187.53 28.8562 185.462 32.2004C182.15 37.5603 182.936 45.4562 188.2 43.9887C193.771 42.4328 201.191 30.008 200.204 26.4768Z" fill="#E2001A"/>
</g>
<defs>
<clipPath id="clip0_1976_240">
<rect width="227.469" height="53.8025" fill="white" transform="translate(0.81958 0.581177)"/>
</clipPath>
</defs>
</svg>
